#!OML:ASF I:\Random Stuff\random\construction\7_22_03\Session 2\subj1.ASF
:FULLY-SPECIFIED
:DEGREES
694
root 5.36361 17.5186 1.21211 20.3562 83.9303 14.8591
lowerback 6.04095 2.16461 -1.78321
upperback -1.80301 2.79646 0.921882
thorax -5.39478 1.45949 1.65839
lowerneck -21.8375 4.34628 5.94473
upperneck 17.4793 5.7075 -7.04525
head 9.49717 2.27939 -2.59287
rclavicle -2.73329e-015 -6.36111e-015
rhumerus -38.0617 4.45055 -71.2285
rradius 42.8375
rwrist -11.9495
rhand -19.054 17.2938
rfingers 7.12502
rthumb 7.25298 -12.5619
lclavicle -2.73329e-015 -6.36111e-015
lhumerus -41.3391 -6.75136 85.5839
lradius 59.2876
lwrist 62.6424
lhand -18.1438 68.6558
lfingers 7.12502
lthumb 8.13156 -98.4793
rfemur -22.5069 3.70139 12.6034
rtibia 31.6339
rfoot -13.6449 1.08094
rtoes -28.8048
lfemur -10.419 -6.29478 -21.1156
ltibia 23.5631
lfoot -18.9449 5.51176
ltoes -21.5352
695
root 5.40713 17.5011 1.3449 21.0523 83.4597 15.4216
lowerback 5.92748 2.21813 -1.88543
upperback -1.84057 2.85922 0.873843
thorax -5.37518 1.49339 1.66228
lowerneck -21.6236 4.49276 6.15326
upperneck 17.2942 5.87833 -7.20053
head 9.41898 2.3619 -2.6562
rclavicle -9.64106e-015 1.07344e-014
rhumerus -38.0471 4.66576 -71.4096
rradius 42.9188
rwrist -11.8316
rhand -19.2761 17.4135
rfingers 7.12502
rthumb 7.03867 -12.4495
lclavicle -9.64106e-015 1.07344e-014
lhumerus -41.2813 -6.42302 85.4341
lradius 58.3731
lwrist 61.8577
lhand -18.3082 67.6447
lfingers 7.12502
lthumb 7.97292 -97.4744
rfemur -22.1697 3.59598 12.8877
rtibia 30.9761
rfoot -14.4923 1.73709
rtoes -27.225
lfemur -10.3455 -6.13911 -20.8381
ltibia 23.692
lfoot -19.2235 5.67823
ltoes -22.6273
696
root 5.44552 17.4876 1.48061 20.3499 83.0135 14.6393
lowerback 5.91625 2.29456 -1.81575
upperback -1.86331 2.96684 0.865477
thorax -5.39344 1.54453 1.60275
lowerneck -21.3902 4.60368 6.21584
upperneck 17.1039 6.01025 -7.19544
head 9.32294 2.43481 -2.64576
rclavicle 9.29318e-015 3.97569e-015
rhumerus -37.9459 4.83013 -71.5373
rradius 42.9157
rwrist -11.8137
rhand -19.3661 17.4141
rfingers 7.12502
rthumb 6.95175 -12.4518
lclavicle 9.29318e-015 3.97569e-015
lhumerus -41.1299 -5.92217 85.2294
lradius 57.2769
lwrist 60.605
lhand -20.5497 67.938
lfingers 7.12502
lthumb 5.80914 -97.8384
rfemur -21.9012 3.80638 13.3628
rtibia 30.5472
rfoot -15.0699 1.95693
rtoes -25.1626
lfemur -10.2184 -6.0371 -20.3629
ltibia 23.826
lfoot -19.4565 5.86669
ltoes -23.6595
697
root 5.47955 17.4831 1.61532 18.0781 82.6549 12.3321
lowerback 6.0037 2.39287 -1.40748
upperback -1.85163 3.13061 0.879364
thorax -5.41612 1.61208 1.36765
lowerneck -21.2759 4.69078 6.14661
upperneck 16.9495 6.11233 -7.04447
head 9.24872 2.49784 -2.56681
rclavicle 1.54058e-015 -6.75868e-015
rhumerus -37.7366 4.9079 -71.607
rradius 42.8369
rwrist -11.8642
rhand -19.3659 17.2344
rfingers 7.12502
rthumb 6.95192 -12.6314
lclavicle 1.54058e-015 -6.75868e-015
lhumerus -40.9331 -5.63734 85.0711
lradius 56.2478
lwrist 59.3571
lhand -21.0972 67.7239
lfingers 7.12502
lthumb 5.28053 -97.6382
rfemur -21.6373 4.09118 14.1225
rtibia 30.1821
rfoot -15.4505 1.98412
rtoes -24.233
lfemur -10.0734 -5.92064 -19.6337
ltibia 24.0284
lfoot -19.7126 6.0132
ltoes -24.9819
698
root 5.51094 17.4835 1.75094 16.0697 82.3505 10.2852
lowerback 6.10127 2.49067 -0.933439
upperback -1.82213 3.29845 0.872314
thorax -5.4188 1.67877 1.07366
lowerneck -21.2738 4.71359 5.99367
upperneck 16.8763 6.13723 -6.83246
head 9.21179 2.52281 -2.46411
rclavicle 4.8255e-014 -3.97569e-015
rhumerus -37.462 4.81076 -71.6194
rradius 42.6816
rwrist -11.8039
rhand -19.3396 17.1355
rfingers 7.12502
rthumb 6.97736 -12.7295
lclavicle 4.8255e-014 -3.97569e-015
lhumerus -40.7366 -5.79009 85.0147
lradius 55.2244
lwrist 58.4931
lhand -21.0743 67.1779
lfingers 7.12502
lthumb 5.30256 -97.0915
rfemur -21.3299 4.24865 14.9033
rtibia 29.7546
rfoot -15.8381 2.04803
rtoes -24.6093
lfemur -10.0203 -5.61346 -18.8797
ltibia 24.3773
lfoot -19.9567 5.90005
ltoes -26.2544
699
root 5.54096 17.4851 1.88855 14.281 82.1729 8.46313
lowerback 6.1694 2.50957 -0.497467
upperback -1.79652 3.36097 0.903833
thorax -5.40868 1.69564 0.853782
lowerneck -21.1151 4.79335 5.91177
upperneck 16.6692 6.22812 -6.66356
head 9.10947 2.58311 -2.37984
rclavicle 2.28105e-014 7.95139e-015
rhumerus -37.1606 4.70969 -71.6255
rradius 42.4997
rwrist -11.5641
rhand -19.364 17.2898
rfingers 7.12502
rthumb 6.95374 -12.5759
lclavicle 2.28105e-014 7.95139e-015
lhumerus -40.5919 -5.92072 84.9257
lradius 54.0859
lwrist 57.8414
lhand -21.0096 66.6816
lfingers 7.12502
lthumb 5.36507 -96.5937
rfemur -20.9265 4.3393 15.6647
rtibia 29.2713
rfoot -16.1727 2.26239
rtoes -24.1815
lfemur -10.1214 -5.05807 -18.0689
ltibia 24.9302
lfoot -20.0527 5.35643
ltoes -27.0535
